<svg xmlns="http://www.w3.org/2000/svg" version="1.0" width="752.000000pt" height="752.000000pt" viewBox="0 0 752.000000 752.000000" preserveAspectRatio="xMidYMid meet">

<g transform="translate(0.000000,752.000000) scale(0.100000,-0.100000)" fill="#000000" stroke="none">
<path d="M5263 4844 c-345 -317 -629 -583 -631 -592 -4 -25 170 -195 195 -190 19 3 1159 1236 1170 1266 7 17 -65 92 -88 92 -10 0 -300 -259 -646 -576z"/>
<path d="M2055 4703 c-46 -10 -73 -26 -84 -49 -8 -18 -11 -329 -11 -1124 l0 -1100 1800 0 1800 0 0 1124 c0 619 -4 1127 -8 1130 -5 3 -48 -37 -95 -89 l-87 -93 0 -926 0 -925 -22 -15 c-20 -14 -187 -16 -1588 -16 -1401 0 -1568 2 -1588 16 l-22 15 0 918 c0 877 1 919 18 934 17 16 123 17 1313 17 l1295 0 99 95 100 94 -1450 -1 c-797 0 -1459 -2 -1470 -5z"/>
<path d="M2810 4185 l0 -45 545 0 545 0 0 45 0 45 -545 0 -545 0 0 -45z"/>
<path d="M4480 4109 c-98 -60 -234 -183 -316 -284 -72 -88 -73 -90 -53 -108 46 -43 4 -100 -82 -112 -69 -9 -121 -36 -152 -77 -22 -29 -178 -389 -172 -396 5 -6 363 153 393 175 40 30 60 68 73 141 15 83 17 88 45 100 34 16 50 15 69 -4 14 -15 19 -14 58 12 58 40 226 208 274 274 22 31 54 80 71 111 l32 55 -78 77 c-43 42 -82 77 -87 76 -6 0 -39 -18 -75 -40z m-430 -639 c26 -26 25 -60 0 -88 -41 -44 -120 -15 -120 43 0 34 33 65 70 65 17 0 39 -9 50 -20z"/>
<path d="M2810 4045 l0 -45 595 0 595 0 0 45 0 45 -595 0 -595 0 0 -45z"/>
<path d="M2812 3903 l3 -48 495 0 495 0 3 48 3 47 -501 0 -501 0 3 -47z"/>
<path d="M2240 3120 l0 -400 1520 0 1520 0 0 400 0 400 -419 0 c-276 0 -422 -4 -426 -10 -4 -6 -46 -37 -95 -70 -64 -43 -89 -66 -95 -87 -3 -15 -20 -46 -36 -68 l-30 -40 311 -3 310 -2 0 -50 0 -50 -414 0 -414 0 -149 -63 -148 -64 -3 -51 -3 -52 -430 0 -429 0 0 210 0 210 430 0 c337 0 430 -3 430 -12 1 -12 25 41 71 155 l19 47 -760 0 -760 0 0 -400z m2180 -70 l0 -50 -260 0 -260 0 0 50 0 50 260 0 260 0 0 -50z"/>
<path d="M1720 2308 c1 -60 34 -116 82 -138 42 -19 83 -20 1958 -20 1875 0 1916 1 1958 20 48 22 81 78 82 138 l0 32 -781 0 -781 0 -30 -25 -30 -25 -418 0 -418 0 -30 25 -30 25 -781 0 -781 0 0 -32z"/>
</g>
</svg>