<svg xmlns="http://www.w3.org/2000/svg" width="368" height="298" viewBox="0 0 368 298" fill="none">
<path d="M54.0881 215.874V250.148C54.0881 251.779 54.7352 253.34 55.8868 254.491L76.8092 275.414C77.9608 276.565 79.5255 277.209 81.1524 277.209H115.426C134.546 286.97 156.192 292.476 179.129 292.476C202.066 292.476 223.716 286.97 242.832 277.209H277.106C278.737 277.209 280.298 276.562 281.446 275.414L302.372 254.491C303.52 253.34 304.167 251.779 304.167 250.148V215.874C313.928 196.758 319.43 175.104 319.43 152.171C319.43 129.238 313.928 107.584 304.167 88.468V54.1907C304.167 52.5639 303.52 51.0028 302.372 49.8512L281.446 28.9288C280.294 27.7772 278.737 27.1301 277.106 27.1301H242.832C223.716 17.369 202.066 11.8633 179.129 11.8633C156.192 11.8633 134.546 17.369 115.426 27.1301H81.1524C79.5219 27.1301 77.9608 27.7772 76.8092 28.9288L55.8868 49.8512C54.7352 51.0028 54.0881 52.5639 54.0881 54.1907V88.468C44.3307 107.584 38.8213 129.238 38.8213 152.171C38.8213 175.104 44.3307 196.758 54.0881 215.874" fill="#C7FA73"/>
<path d="M54.0881 215.874V250.148C54.0881 251.779 54.7352 253.34 55.8868 254.491L76.8092 275.414C77.9608 276.565 79.5255 277.209 81.1524 277.209H115.426C134.546 286.97 156.192 292.476 179.129 292.476C202.066 292.476 223.716 286.97 242.832 277.209H277.106C278.737 277.209 280.298 276.562 281.446 275.414L302.372 254.491C303.52 253.34 304.167 251.779 304.167 250.148V215.874C313.928 196.758 319.43 175.104 319.43 152.171C319.43 129.238 313.928 107.584 304.167 88.468V54.1907C304.167 52.5639 303.52 51.0028 302.372 49.8512L281.446 28.9288C280.294 27.7772 278.737 27.1301 277.106 27.1301H242.832C223.716 17.369 202.066 11.8633 179.129 11.8633C156.192 11.8633 134.546 17.369 115.426 27.1301H81.1524C79.5219 27.1301 77.9608 27.7772 76.8092 28.9288L55.8868 49.8512C54.7352 51.0028 54.0881 52.5639 54.0881 54.1907V88.468C44.3307 107.584 38.8213 129.238 38.8213 152.171C38.8213 175.104 44.3307 196.758 54.0881 215.874" stroke="white" stroke-width="2" stroke-linecap="round" stroke-linejoin="round"/>
<path d="M215.377 104.92C217.205 109.27 218.539 111.208 217.567 114.118C216.598 117.028 211.14 127.334 207.989 127.941C204.837 128.548 201.441 127.352 201.441 127.352L215.377 104.92Z" fill="#C7FA73" stroke="black" stroke-width="1.2" stroke-linecap="round" stroke-linejoin="round"/>
<path d="M130.181 213.009L130.565 221.487L163.712 198.261L163.332 189.783L130.181 213.009Z" fill="black" stroke="black" stroke-width="1.2" stroke-linecap="round" stroke-linejoin="round"/>
<path d="M121.238 219.049L121.619 227.53L88.471 250.752L88.0908 242.274L121.238 219.049Z" fill="black" stroke="black" stroke-width="1.2" stroke-linecap="round" stroke-linejoin="round"/>
<path d="M79.8143 248.445L80.1946 256.923L47.0433 280.149L46.6631 271.667L79.8143 248.445Z" fill="black" stroke="black" stroke-width="1.2" stroke-linecap="round" stroke-linejoin="round"/>
<path d="M26 252.287L26.3802 260.765L47.0431 280.148L46.6629 271.667L26 252.287Z" fill="#C7FA73" stroke="black" stroke-width="1.2" stroke-linecap="round" stroke-linejoin="round"/>
<path d="M49.4305 214.134L49.0503 205.656L88.0911 242.273L88.4713 250.751L49.4305 214.134Z" fill="#C7FA73" stroke="black" stroke-width="1.2" stroke-linecap="round" stroke-linejoin="round"/>
<path d="M66.7191 161.605L66.3389 153.123L130.181 213.01L130.565 221.487L66.7191 161.605Z" fill="#C7FA73" stroke="black" stroke-width="1.2" stroke-linecap="round" stroke-linejoin="round"/>
<path d="M79.8141 248.446L46.6629 271.668L26 252.288L59.1476 229.062L79.8141 248.446Z" fill="white" stroke="black" stroke-width="1.2" stroke-linecap="round" stroke-linejoin="round"/>
<path d="M121.239 219.049L88.0911 242.274L49.0503 205.657L82.1979 182.432L121.239 219.049Z" fill="white" stroke="black" stroke-width="1.2" stroke-linecap="round" stroke-linejoin="round"/>
<path d="M163.332 189.783L130.181 213.009L66.3389 153.122L99.4865 129.9L163.332 189.783Z" fill="white" stroke="black" stroke-width="1.2" stroke-linecap="round" stroke-linejoin="round"/>
<path d="M337.644 119.461L280.012 69.3621C278.011 67.6228 274.979 67.8348 273.24 69.8356L243.528 104.015C241.789 106.016 242.001 109.048 244.001 110.787L301.634 160.886C303.634 162.625 306.666 162.413 308.406 160.413L338.118 126.233C339.857 124.232 339.645 121.2 337.644 119.461Z" fill="white"/>
<path d="M286.688 114.365C287.294 117.052 289.689 121.662 301.662 123.351C313.635 125.04 332.06 126.623 332.06 126.623C332.06 126.623 308.579 157.391 305.362 159.325C302.144 161.259 299.114 158.678 299.114 158.678C299.114 158.678 303.859 164.922 308.418 160.407C311.079 157.771 338.999 124.752 338.999 124.752L338.772 123.344L292.935 119.048L290.691 118.496L286.688 114.365V114.365Z" fill="#C7FA73"/>
<path d="M337.644 119.461L280.012 69.3621C278.011 67.6228 274.979 67.8348 273.24 69.8356L243.528 104.015C241.789 106.016 242.001 109.048 244.001 110.787L301.634 160.886C303.634 162.625 306.666 162.413 308.406 160.413L338.118 126.233C339.857 124.232 339.645 121.2 337.644 119.461Z" stroke="black" stroke-width="1.2" stroke-linecap="round" stroke-linejoin="round"/>
<path d="M275.896 68.2832L286.388 112.621C287.236 116.2 290.27 118.836 293.93 119.176L339.299 123.392" stroke="black" stroke-width="1.2" stroke-linecap="round" stroke-linejoin="round"/>
<path d="M242.378 106.842L285.627 109.412" stroke="black" stroke-width="1.2" stroke-linecap="round" stroke-linejoin="round"/>
<path d="M297.216 119.484L304.539 162.046" stroke="black" stroke-width="1.2" stroke-linecap="round" stroke-linejoin="round"/>
<path d="M150.394 296C155.551 296 159.731 291.82 159.731 286.663C159.731 281.507 155.551 277.326 150.394 277.326C145.237 277.326 141.057 281.507 141.057 286.663C141.057 291.82 145.237 296 150.394 296Z" fill="black" stroke="black" stroke-width="1.2" stroke-linecap="round" stroke-linejoin="round"/>
<path d="M221.449 269.506C226.606 269.506 230.786 265.326 230.786 260.169C230.786 255.012 226.606 250.832 221.449 250.832C216.293 250.832 212.112 255.012 212.112 260.169C212.112 265.326 216.293 269.506 221.449 269.506Z" fill="black" stroke="black" stroke-width="1.2" stroke-linecap="round" stroke-linejoin="round"/>
<path d="M237.937 153.594C243.094 153.594 247.274 149.414 247.274 144.257C247.274 139.1 243.094 134.92 237.937 134.92C232.78 134.92 228.6 139.1 228.6 144.257C228.6 149.414 232.78 153.594 237.937 153.594Z" fill="black" stroke="black" stroke-width="1.2" stroke-linecap="round" stroke-linejoin="round"/>
<path d="M281.501 185.604C286.657 185.604 290.838 181.423 290.838 176.267C290.838 171.11 286.657 166.93 281.501 166.93C276.344 166.93 272.164 171.11 272.164 176.267C272.164 181.423 276.344 185.604 281.501 185.604Z" fill="black" stroke="black" stroke-width="1.2" stroke-linecap="round" stroke-linejoin="round"/>
<path d="M300.174 144.256C305.331 144.256 309.512 140.076 309.512 134.919C309.512 129.762 305.331 125.582 300.174 125.582C295.018 125.582 290.837 129.762 290.837 134.919C290.837 140.076 295.018 144.256 300.174 144.256Z" fill="black" stroke="black" stroke-width="1.2" stroke-linecap="round" stroke-linejoin="round"/>
<path d="M150.394 286.663L174.281 225.432L221.449 260.169L237.937 144.257L281.5 176.268L300.174 134.92" stroke="black" stroke-width="1.2" stroke-linecap="round" stroke-linejoin="round"/>
<path d="M328.61 194.916L328.602 184.57C328.602 184.57 320.848 188.109 313.204 191.611L168.962 177.664C167.31 177.503 165.646 177.865 164.21 178.699L86.647 223.648L75.4527 221.037V231.204C75.4454 231.299 75.4454 231.394 75.4527 231.486V231.522H75.4564C75.5332 232.407 76.1437 233.244 77.1929 233.423L247.205 262.604C249.552 263.006 251.954 262.337 253.752 260.78L327.871 196.602C328.405 196.141 328.628 195.519 328.595 194.92H328.606L328.61 194.916Z" fill="#C7FA73"/>
<path d="M81.0205 223.673L81.0534 234.096L76.107 232.886L75.4563 231.482L75.4453 221.955L81.0205 223.673Z" fill="white"/>
<path d="M82.9033 223.648L82.9508 234.163L85.1626 234.459L85.1553 223.956L82.9033 223.648Z" fill="white"/>
<path d="M328.61 194.916L328.602 184.57C328.602 184.57 320.848 188.109 313.204 191.611L168.962 177.664C167.31 177.503 165.646 177.865 164.21 178.699L86.647 223.648L75.4527 221.037V231.204C75.4454 231.299 75.4454 231.394 75.4527 231.486V231.522H75.4564C75.5332 232.407 76.1437 233.244 77.1929 233.423L247.205 262.604C249.552 263.006 251.954 262.337 253.752 260.78L327.871 196.602C328.405 196.141 328.628 195.519 328.595 194.92H328.606L328.61 194.916Z" stroke="black" stroke-width="1.2" stroke-linecap="round" stroke-linejoin="round"/>
<path d="M315.365 196.949L268.899 237.186L253.756 249.751C251.954 251.305 249.548 251.977 247.201 251.571L185.019 241.445L174.186 239.584L172.655 239.321L77.1931 222.935C75.2518 222.602 74.7875 220.025 76.4875 219.038L147.959 177.617L207.173 184.454L223.515 186.34L315.357 196.942L315.365 196.949Z" fill="#C7FA73" stroke="black" stroke-width="1.2" stroke-linecap="round" stroke-linejoin="round"/>
<path d="M249.862 252.231V262.526L251.88 261.985L328.258 196.158L328.609 193.983L328.606 185.604L253.058 250.831L251.398 251.862L249.862 252.231Z" fill="black"/>
<path d="M247.76 252.401V262.886L245.899 262.527V252.119L247.76 252.401Z" fill="black"/>
<path d="M327.878 186.116L315.368 196.949L147.97 177.624L164.213 168.21C165.65 167.38 167.313 167.015 168.966 167.179L326.701 182.431C328.544 182.611 329.275 184.91 327.878 186.12V186.116Z" fill="white" stroke="black" stroke-width="1.2" stroke-linecap="round" stroke-linejoin="round"/>
<path d="M265.48 240.113L253.756 249.749C251.954 251.303 249.548 251.976 247.201 251.57L174.19 239.582L236.442 206.881C248.162 223.164 265.477 240.109 265.477 240.109L265.48 240.113Z" fill="black" stroke="black" stroke-width="1.2" stroke-linecap="round" stroke-linejoin="round"/>
<path d="M236.445 206.884C236.445 206.884 232.483 217.351 212.116 231.156C201.51 238.347 191.998 240.873 185.026 241.447L174.194 239.586L172.662 239.323C169.894 234.658 160.217 211.849 160.217 211.849L207.188 184.459L218.908 177.623C223.804 187.454 229.752 197.2 236.449 206.884H236.445Z" fill="white" stroke="black" stroke-width="1.2" stroke-linecap="round" stroke-linejoin="round"/>
<path d="M218.901 177.619C218.901 177.619 203.218 144.592 190.769 126.485C178.321 108.377 153.425 125.779 147.118 140.764C140.812 155.75 152.58 190.261 154.324 195.511C156.741 202.786 160.214 211.849 160.214 211.849C160.214 211.849 173.631 217.83 196.915 201.985C220.195 186.141 218.901 177.619 218.901 177.619Z" fill="#C7FA73"/>
<path d="M154.558 178.061C157.79 197.623 163.713 212.711 163.713 212.711L160.627 212.82L149.656 181.545L154.555 178.061H154.558Z" fill="white"/>
<path d="M218.901 177.619C218.901 177.619 203.218 144.592 190.769 126.485C178.321 108.377 153.425 125.779 147.118 140.764C140.812 155.75 152.58 190.261 154.324 195.511C156.741 202.786 160.214 211.849 160.214 211.849C160.214 211.849 173.631 217.83 196.915 201.985C220.195 186.141 218.901 177.619 218.901 177.619Z" stroke="black" stroke-width="1.2" stroke-linecap="round" stroke-linejoin="round"/>
<path d="M221.769 210.567C224.104 209.219 224.563 205.645 222.795 202.583C221.028 199.521 217.702 198.132 215.368 199.48C213.033 200.827 212.574 204.402 214.342 207.464C216.11 210.525 219.435 211.915 221.769 210.567Z" fill="black" stroke="black" stroke-width="1.2" stroke-linecap="round" stroke-linejoin="round"/>
<path d="M190.769 126.485C167.489 138.611 164.173 175.715 155.326 180.2C148.84 183.491 142.589 180.321 141.7 175.47C140.812 170.618 163.851 115.115 163.851 115.115L190.769 126.485V126.485Z" fill="#C7FA73" stroke="black" stroke-width="1.2" stroke-linecap="round" stroke-linejoin="round"/>
<path d="M157.157 146.933C151.728 155.345 149.546 173.207 150.756 177.009C151.97 180.808 153.794 180.863 153.794 180.863C153.794 180.863 150.021 182.548 146.877 180.863C143.733 179.177 142.154 176.933 142.154 176.933L147.312 153.59L151.001 143.061L156.741 138.766L157.157 146.933V146.933Z" fill="black"/>
<path d="M143.835 138.77C131.435 143.464 130.14 176.918 139.591 177.514C147.312 178 142.753 164.17 148.328 151.927C153.907 139.68 143.832 138.77 143.832 138.77H143.835Z" fill="#C7FA73"/>
<path d="M135.357 156.679C136.933 173.412 140.062 177.85 141.108 177.393C142.153 176.933 138.841 178.366 137.342 176.626C135.843 174.885 134.575 173.719 133.763 168.437C132.889 162.733 134.037 155.477 134.037 155.477L135.357 156.679Z" fill="white"/>
<path d="M143.835 138.77C131.435 143.464 130.14 176.918 139.591 177.514C147.312 178 142.753 164.17 148.328 151.927C153.907 139.68 143.832 138.77 143.832 138.77H143.835Z" stroke="black" stroke-width="1.2" stroke-linecap="round" stroke-linejoin="round"/>
<path d="M145.291 129.674C132.89 134.368 130.872 166.744 140.209 168.32C149.546 169.896 144.212 155.078 149.787 142.831C155.366 130.584 145.291 129.674 145.291 129.674Z" fill="#C7FA73"/>
<path d="M141.309 135.823C137.419 146.977 138.754 162.62 140.209 165.164C141.664 167.713 142.644 168.301 142.644 168.301C142.644 168.301 139.927 169.537 137.705 166.927C135.482 164.316 134.502 164.506 134.447 152.164C134.389 139.822 140.081 133.9 140.081 133.9L142.157 131.607L141.313 135.819L141.309 135.823Z" fill="white"/>
<path d="M145.291 129.674C132.89 134.368 130.872 166.744 140.209 168.32C149.546 169.896 144.212 155.078 149.787 142.831C155.366 130.584 145.291 129.674 145.291 129.674Z" stroke="black" stroke-width="1.2" stroke-linecap="round" stroke-linejoin="round"/>
<path d="M149.656 123.396C139.723 124.307 134.265 161.048 143.602 162.624C152.939 164.199 148.574 148.801 154.153 136.554C159.731 124.307 149.656 123.396 149.656 123.396Z" fill="#C7FA73"/>
<path d="M147.312 128.113C140.209 143.219 141.309 151.708 142.702 157.042C143.529 160.208 146.069 162.587 146.069 162.587C146.069 162.587 144.209 163.611 141.675 162.046C139.142 160.478 138.031 153.883 139 146C139.969 138.118 142.559 129.062 144.5 127C146.441 124.939 148.939 122.973 148.939 122.973L147.312 128.113Z" fill="white"/>
<path d="M149.656 123.396C139.723 124.307 134.265 161.048 143.602 162.624C152.939 164.199 148.574 148.801 154.153 136.554C159.731 124.307 149.656 123.396 149.656 123.396Z" stroke="black" stroke-width="1.2" stroke-linecap="round" stroke-linejoin="round"/>
<path d="M154.759 115.12C147.312 120.183 140.209 144.806 148.939 144.798C158.905 144.791 162.275 123.7 169.309 116.666C176.343 109.633 154.759 115.12 154.759 115.12Z" fill="#C7FA73"/>
<path d="M157.815 117.273C150.84 125.517 148.614 135.877 148.939 139.826C149.264 143.774 150.453 144.622 150.453 144.622C150.453 144.622 146.862 146.94 145.089 140.714C143.316 134.488 150.39 119.338 150.39 119.338L152.854 116.863L157.812 117.269L157.815 117.273Z" fill="white"/>
<path d="M154.759 115.12C147.312 120.183 140.209 144.806 148.939 144.798C158.905 144.791 162.275 123.7 169.309 116.666C176.343 109.633 154.759 115.12 154.759 115.12Z" stroke="black" stroke-width="1.2" stroke-linecap="round" stroke-linejoin="round"/>
<path d="M191.095 159.308C178.321 150.899 164.816 128.975 160.451 127.52C156.086 126.065 152.891 134.09 157.815 149.053C162.988 164.766 161.672 182.04 169.755 190.993" fill="#C7FA73"/>
<path d="M162.681 129.439C156.152 131.208 160.948 158.064 162.33 167.836L163.712 177.605C163.712 177.605 159.23 154.825 157.585 148.336C155.94 141.847 154.73 136.919 155.838 132.188C156.945 127.458 158.857 127.352 158.857 127.352L161.442 128.072L162.685 129.435L162.681 129.439Z" fill="white"/>
<path d="M191.095 159.308C178.321 150.899 164.816 128.975 160.451 127.52C156.086 126.065 152.891 134.09 157.815 149.053C162.988 164.766 161.672 182.04 169.755 190.993" stroke="black" stroke-width="1.2" stroke-linecap="round" stroke-linejoin="round"/>
<path d="M185.224 73.4277C193.683 81.0575 211.03 89.7475 214.375 97.549C218.916 108.129 208.164 130.558 195.405 130.368C182.646 130.178 158.653 118.753 158.653 118.753L185.224 73.4277V73.4277Z" fill="#C7FA73"/>
<path d="M188.77 82.6741C204.026 91.4043 214.39 98.6502 215.432 101.897C216.474 105.147 217.893 100.091 209.667 91.6236C201.441 83.1567 187.044 74.9785 187.044 74.9785L188.77 82.6704V82.6741Z" fill="white"/>
<path d="M185.224 73.4277C193.683 81.0575 211.03 89.7475 214.375 97.549C218.916 108.129 208.164 130.558 195.405 130.368C182.646 130.178 158.653 118.753 158.653 118.753L185.224 73.4277V73.4277Z" stroke="black" stroke-width="1.2" stroke-linecap="round" stroke-linejoin="round"/>
<path d="M185.223 73.4285C182.101 70.1163 175.608 63.554 168.951 54.2206C164.751 48.3347 152.566 23.8369 147.685 22.9595C142.804 22.0857 97.4683 112.02 97.4683 112.02C100.886 114.443 119.158 114.312 132.575 115.12C145.992 115.928 153.125 116.959 158.66 118.754C166.655 121.349 175.923 115.266 183.253 102.569C189.885 91.0863 190.55 78.7843 185.227 73.4285H185.223Z" fill="white" stroke="black" stroke-width="1.2" stroke-linecap="round" stroke-linejoin="round"/>
<path d="M148.043 54.6912C146.614 58.7785 144.822 63.0631 142.695 67.4429C141.258 70.4004 139.668 73.4019 137.931 76.407C136.195 79.4085 134.396 82.282 132.55 85.0019C129.823 89.0343 127 92.734 124.178 96.0133C113.408 108.542 102.594 115.082 96.5141 111.569C87.7656 106.52 92.127 82.5891 106.261 58.1168C120.387 33.6518 138.929 17.9097 147.674 22.9548C153.754 26.4681 153.501 39.0954 148.04 54.6876L148.043 54.6912Z" fill="#C7FA73" stroke="black" stroke-width="1.2" stroke-linecap="round" stroke-linejoin="round"/>
<path d="M96.518 111.574C91.992 96.0549 104.272 63.1376 123.999 42.5807C143.726 22.0239 152.098 32.0848 152.098 32.0848C152.098 32.0848 152.931 47.0847 140.809 71.1841C128.686 95.2835 111.847 107.699 111.847 107.699L105.632 111.281L101.687 112.747L96.518 111.574V111.574Z" fill="black"/>
<path d="M75.4492 2L85.1994 39.8308L97.4867 27.1267L119.473 66.6684L103.307 7.17303L87.8535 21.7233L75.4492 2Z" fill="white" stroke="#C7FA73" stroke-width="1.2" stroke-linecap="round" stroke-linejoin="round"/>
<path d="M37.0225 43.3887L71.4716 88.3337L82.5232 70.2263L114.947 81.8665L78.085 56.3231L69.0477 71.5205L37.0225 43.3887Z" fill="white" stroke="#C7FA73" stroke-width="1.2" stroke-linecap="round" stroke-linejoin="round"/>
<path d="M148.044 54.6919C145.649 61.5356 142.242 68.9424 137.931 76.4076C133.625 83.8656 128.905 90.5192 124.182 96.014C118.742 89.6966 118.53 78.4439 124.262 68.5146C129.998 58.5853 139.851 53.1381 148.04 54.6919H148.044Z" fill="#C7FA73" stroke="black" stroke-width="1.2" stroke-linecap="round" stroke-linejoin="round"/>
<path d="M142.698 67.4432C141.262 70.4008 139.671 73.4023 137.935 76.4074C136.198 79.4089 134.4 82.2823 132.553 85.0023C130.195 81.2148 129.804 76.6523 131.943 72.949C134.082 69.2383 138.235 67.297 142.698 67.4432Z" fill="black" stroke="black" stroke-width="1.2" stroke-linecap="round" stroke-linejoin="round"/>
<path d="M197.387 109.232C196.792 108.907 196.046 109.126 195.72 109.721C195.395 110.316 195.614 111.063 196.209 111.388L203.235 115.228C203.83 115.553 204.576 115.334 204.902 114.739C205.227 114.144 205.008 113.398 204.413 113.072L197.387 109.232Z" fill="black" stroke="black" stroke-width="1.2" stroke-linecap="round" stroke-linejoin="round"/>
<path d="M202.1 99.0492C201.562 98.6361 200.79 98.7375 200.377 99.2756C199.964 99.8137 200.066 100.585 200.604 100.998L206.955 105.873C207.493 106.286 208.264 106.185 208.677 105.647C209.09 105.108 208.989 104.337 208.451 103.924L202.1 99.0492Z" fill="black" stroke="black" stroke-width="1.2" stroke-linecap="round" stroke-linejoin="round"/>
<path d="M191.085 118.379C190.444 118.157 189.744 118.497 189.522 119.138C189.3 119.779 189.64 120.479 190.281 120.701L197.847 123.319C198.489 123.541 199.188 123.201 199.41 122.56C199.632 121.919 199.292 121.219 198.651 120.997L191.085 118.379Z" fill="black" stroke="black" stroke-width="1.2" stroke-linecap="round" stroke-linejoin="round"/>
<path d="M176.358 125.989C167.895 127.458 165.515 132.185 165.515 132.185L162.331 128.807L165.679 121.861L176.362 125.989H176.358Z" fill="black"/>
<path d="M184.902 130.367C181.151 136.107 183.6 153.15 184.902 154.331C186.203 155.512 178.365 147.564 178.365 147.564L174.49 143.064C174.49 143.064 176.676 138.611 179.769 135.383C182.862 132.155 184.902 130.367 184.902 130.367Z" fill="black"/>
<path d="M214.463 110.246C214.415 116.424 209.187 127.352 209.187 127.352L205.067 128.072C205.067 128.072 202.654 128.094 203.086 127.787C203.521 127.48 206.054 125.842 208.961 121.861C211.867 117.88 214.463 110.246 214.463 110.246V110.246Z" fill="black"/>
<path d="M275.084 230.363L253.215 250.299C251.412 251.852 249.007 252.525 246.66 252.119L178.588 242.084" stroke="#C7FA73" stroke-width="1.2" stroke-linecap="round" stroke-linejoin="round"/>
</svg>