<svg xmlns="http://www.w3.org/2000/svg" xmlns:xlink="http://www.w3.org/1999/xlink" version="1.1" width="600" height="600" viewBox="0 0 600 600" xml:space="preserve">
<desc>Created with Fabric.js 5.2.4</desc>
<defs>
</defs>
<g transform="matrix(1 0 0 1 300 300)" id="bbca20fe-d7b7-468b-96fa-742b1d8f6291">
<rect style="stroke: none; stroke-width: 1; stroke-dasharray: none; stroke-linecap: butt; stroke-dashoffset: 0; stroke-linejoin: miter; stroke-miterlimit: 4; fill: rgb(255,255,255); fill-rule: nonzero; opacity: 1; visibility: hidden;" vector-effect="non-scaling-stroke" x="-300" y="-300" rx="0" ry="0" width="600" height="600"/>
</g>
<g transform="matrix(Infinity NaN NaN Infinity 0 0)" id="422da999-2ee0-4ae5-8087-f230c8056a87">
</g>
<g transform="matrix(0.72 0 0 0.72 300 300)">
<g style="">
		<g transform="matrix(0.25 0 0 0.25 76.88 0)">
<path style="stroke: none; stroke-width: 1; stroke-dasharray: none; stroke-linecap: butt; stroke-dashoffset: 0; stroke-linejoin: miter; stroke-miterlimit: 4; fill: rgb(0,0,0); fill-rule: nonzero; opacity: 1;" vector-effect="non-scaling-stroke" transform=" translate(-93.5, -1024)" d="M 0 0 L 478 0 L 484 2 L 508 9 L 526 17 L 541 26 L 555 37 L 565 46 L 576 58 L 587 74 L 596 90 L 604 111 L 608 127 L 610 142 L 611 169 L 611 737 L 617 736 L 636 737 L 654 741 L 669 747 L 685 757 L 698 768 L 706 777 L 713 787 L 722 804 L 727 819 L 730 838 L 730 1246 L 728 1275 L 724 1305 L 718 1335 L 708 1370 L 697 1400 L 685 1426 L 674 1448 L 665 1463 L 656 1477 L 645 1493 L 637 1504 L 619 1528 L 605 1547 L 597 1559 L 586 1577 L 575 1598 L 569 1613 L 563 1637 L 562 1646 L 561 1793 L 585 1793 L 596 1797 L 604 1804 L 609 1813 L 610 1816 L 611 1832 L 611 1989 L 610 2025 L 606 2034 L 599 2042 L 589 2048 L 247 2048 L 237 2042 L 229 2033 L 226 2026 L 225 2016 L 227 2007 L 232 1999 L 237 1994 L 245 1989 L 254 1987 L 550 1987 L 549 1984 L 549 1854 L 34 1854 L 34 1987 L 117 1987 L 129 1989 L 138 1995 L 145 2003 L 148 2010 L 149 2020 L 146 2030 L 140 2039 L 134 2044 L 126 2048 L -6 2048 L -16 2041 L -24 2032 L -26 2027 L -27 2021 L -27 1818 L -23 1808 L -17 1800 L -9 1795 L -4 1793 L 22 1792 L 22 1753 L 20 1727 L 16 1707 L 8 1687 L -1 1663 L -8 1639 L -13 1614 L -16 1591 L -17 1574 L -17 1554 L -15 1528 L -11 1503 L -5 1477 L 5 1448 L 14 1427 L 26 1405 L 40 1384 L 53 1367 L 56 1363 L 58 1363 L 60 1359 L 75 1343 L 91 1328 L 101 1319 L 109 1312 L 119 1303 L 127 1296 L 143 1281 L 150 1273 L 158 1265 L 171 1248 L 179 1234 L 183 1226 L 188 1210 L 194 1175 L 203 1117 L 206 1099 L 115 1100 L 114 1131 L 110 1146 L 103 1159 L 95 1169 L 85 1177 L 69 1185 L 42 1193 L 29 1197 L 27 1199 L 28 1206 L 46 1239 L 51 1253 L 53 1262 L 53 1277 L 49 1293 L 42 1307 L 31 1320 L 1 1350 L -14 1360 L -28 1365 L -37 1367 L -52 1367 L -68 1363 L -84 1355 L -104 1344 L -111 1341 L -116 1342 L -120 1353 L -128 1381 L -136 1398 L -145 1409 L -155 1417 L -169 1424 L -179 1427 L -186 1428 L -244 1428 L -260 1424 L -273 1417 L -285 1407 L -293 1396 L -299 1384 L -311 1344 L -313 1341 L -321 1342 L -339 1352 L -353 1360 L -367 1365 L -376 1367 L -390 1367 L -404 1364 L -416 1359 L -426 1352 L -438 1341 L -463 1316 L -473 1302 L -479 1288 L -481 1278 L -481 1262 L -477 1246 L -469 1230 L -456 1206 L -456 1198 L -467 1194 L -498 1185 L -512 1178 L -522 1170 L -522 1168 L -524 1168 L -533 1156 L -539 1144 L -542 1132 L -543 1122 L -543 1079 L -541 1063 L -536 1049 L -529 1038 L -519 1027 L -505 1018 L -489 1012 L -460 1004 L -455 1002 L -456 994 L -465 977 L -474 961 L -479 948 L -481 939 L -481 922 L -477 907 L -470 893 L -461 882 L -428 849 L -418 842 L -405 836 L -390 833 L -376 833 L -360 837 L -344 845 L -321 858 L -313 859 L -309 850 L -300 819 L -295 807 L -286 794 L -279 787 L -265 778 L -251 773 L -233 771 L -197 771 L -177 773 L -166 777 L -155 783 L -142 794 L -134 805 L -133 559 L -129 549 L -123 541 L -113 535 L -102 533 L -91 535 L -83 540 L -76 548 L -72 557 L -71 636 L -71 838 L -58 834 L -48 833 L -39 833 L -27 835 L -12 841 L -1 849 L 9 858 L 34 883 L 43 895 L 49 907 L 53 924 L 53 936 L 50 951 L 45 963 L 35 981 L 27 996 L 28 1002 L 38 1006 L 64 1013 L 76 1018 L 88 1025 L 96 1032 L 100 1037 L 230 1037 L 232 1033 L 236 1028 L 252 1016 L 268 1008 L 283 1004 L 289 1003 L 315 1003 L 329 1006 L 342 1011 L 353 1017 L 366 1027 L 377 1038 L 455 1038 L 474 1035 L 491 1030 L 493 1024 L 507 900 L 513 845 L 516 822 L 521 805 L 529 789 L 539 775 L 548 766 L 549 755 L 549 250 L -71 251 L -72 427 L -76 436 L -82 444 L -88 448 L -96 451 L -108 451 L -118 447 L -126 440 L -130 434 L -133 424 L -133 149 L -130 126 L -124 104 L -115 84 L -106 69 L -96 56 L -87 46 L -80 39 L -66 28 L -48 17 L -33 10 L -15 4 L -1 1 z M 22 60 L 5 62 L -9 66 L -25 74 L -36 82 L -46 91 L -54 101 L -62 115 L -67 127 L -71 143 L -72 171 L -72 189 L 549 189 L 549 146 L 546 131 L 541 117 L 533 102 L 522 89 L 512 80 L 498 71 L 484 65 L 466 61 L 455 60 z M 621 799 L 608 802 L 597 808 L 587 817 L 579 830 L 575 845 L 570 885 L 563 949 L 555 1020 L 546 1099 L 539 1163 L 533 1213 L 528 1238 L 523 1254 L 515 1274 L 505 1293 L 495 1308 L 484 1322 L 473 1334 L 460 1346 L 441 1360 L 420 1372 L 404 1379 L 377 1388 L 363 1392 L 317 1438 L 317 1440 L 313 1442 L 313 1444 L 309 1446 L 309 1448 L 307 1448 L 300 1456 L 288 1468 L 277 1476 L 271 1478 L 256 1478 L 246 1473 L 243 1472 L 243 1470 L 241 1470 L 239 1466 L 235 1457 L 234 1448 L 236 1438 L 241 1430 L 250 1420 L 318 1352 L 327 1338 L 332 1325 L 334 1317 L 335 1300 L 335 1094 L 332 1082 L 326 1074 L 319 1068 L 308 1064 L 293 1064 L 283 1068 L 278 1072 L 274 1077 L 270 1087 L 262 1135 L 252 1200 L 248 1222 L 244 1236 L 239 1249 L 231 1265 L 224 1276 L 216 1287 L 208 1297 L 197 1310 L 164 1343 L 162 1344 L 162 1346 L 158 1348 L 147 1359 L 139 1366 L 129 1376 L 123 1381 L 116 1389 L 103 1402 L 90 1419 L 80 1434 L 67 1458 L 58 1481 L 52 1501 L 47 1525 L 45 1541 L 44 1568 L 46 1597 L 51 1623 L 57 1644 L 67 1670 L 77 1695 L 81 1714 L 83 1733 L 84 1793 L 499 1793 L 500 1758 L 501 1642 L 504 1621 L 509 1601 L 518 1577 L 527 1558 L 537 1541 L 549 1522 L 558 1509 L 568 1495 L 577 1483 L 593 1461 L 611 1434 L 620 1419 L 631 1398 L 643 1370 L 655 1334 L 662 1304 L 666 1279 L 668 1259 L 669 1239 L 669 843 L 667 830 L 663 820 L 659 814 L 652 807 L 640 801 L 632 799 z M -133 806 M -239 833 L -242 838 L -251 871 L -256 883 L -262 893 L -271 903 L -281 910 L -294 916 L -306 919 L -322 920 L -338 917 L -355 909 L -376 897 L -382 894 L -388 895 L -418 925 L -420 929 L -419 934 L -410 951 L -401 967 L -396 980 L -394 992 L -395 1010 L -399 1023 L -407 1038 L -417 1049 L -427 1056 L -441 1062 L -476 1072 L -481 1075 L -482 1103 L -482 1121 L -480 1126 L -465 1131 L -440 1138 L -424 1146 L -413 1155 L -405 1166 L -399 1178 L -395 1192 L -394 1204 L -396 1220 L -401 1233 L -405 1241 L -417 1262 L -420 1268 L -419 1273 L -410 1283 L -390 1303 L -385 1306 L -380 1305 L -353 1290 L -341 1284 L -330 1281 L -322 1280 L -313 1280 L -297 1283 L -287 1287 L -275 1294 L -267 1301 L -258 1313 L -252 1327 L -242 1362 L -239 1367 L -190 1367 L -186 1361 L -176 1326 L -168 1310 L -161 1301 L -152 1293 L -140 1286 L -128 1282 L -115 1280 L -106 1280 L -90 1283 L -71 1292 L -54 1302 L -46 1306 L -41 1305 L -32 1297 L -32 1295 L -29 1294 L -24 1288 L -17 1282 L -12 1277 L -12 1275 L -10 1275 L -8 1269 L -16 1253 L -26 1235 L -31 1224 L -34 1210 L -34 1196 L -31 1182 L -25 1168 L -17 1157 L -9 1149 L 4 1141 L 22 1135 L 45 1129 L 51 1126 L 53 1124 L 53 1076 L 50 1073 L 34 1068 L 10 1061 L -4 1054 L -14 1046 L -23 1035 L -30 1021 L -33 1010 L -34 1003 L -34 991 L -31 976 L -23 959 L -11 938 L -8 932 L -9 927 L -18 917 L -38 897 L -43 894 L -49 895 L -74 909 L -86 915 L -95 918 L -101 919 L -120 919 L -135 915 L -149 908 L -159 900 L -168 890 L -176 874 L -187 836 L -189 833 z M 483 1096 L 466 1098 L 449 1099 L 396 1099 L 395 1315 L 397 1316 L 413 1306 L 427 1294 L 439 1282 L 452 1264 L 458 1254 L 466 1235 L 471 1217 L 474 1200 L 482 1131 L 486 1097 z" stroke-linecap="round"/>
</g>
		<g transform="matrix(0.25 0 0 0.25 -141.38 92.5)">
<path style="stroke: none; stroke-width: 1; stroke-dasharray: none; stroke-linecap: butt; stroke-dashoffset: 0; stroke-linejoin: miter; stroke-miterlimit: 4; fill: rgb(0,0,0); fill-rule: nonzero; opacity: 1;" vector-effect="non-scaling-stroke" transform=" translate(-278.5, -654)" d="M 0 0 L 19 0 L 38 3 L 56 9 L 74 19 L 87 30 L 96 40 L 104 53 L 111 69 L 114 81 L 123 162 L 142 332 L 156 455 L 160 479 L 165 496 L 173 514 L 184 532 L 195 545 L 209 559 L 226 571 L 234 576 L 234 347 L 237 331 L 242 318 L 248 306 L 258 293 L 262 288 L 273 279 L 286 271 L 298 266 L 309 263 L 316 262 L 340 262 L 355 265 L 370 271 L 381 278 L 391 286 L 401 296 L 410 310 L 416 322 L 420 336 L 439 455 L 443 475 L 448 489 L 455 501 L 464 512 L 557 605 L 564 616 L 565 620 L 565 633 L 562 641 L 555 650 L 547 655 L 538 657 L 529 657 L 519 653 L 509 644 L 414 549 L 404 536 L 396 523 L 388 507 L 382 488 L 377 461 L 360 353 L 357 342 L 352 334 L 352 332 L 340 326 L 328 324 L 317 326 L 308 331 L 301 338 L 297 347 L 296 353 L 296 570 L 299 586 L 304 598 L 311 609 L 332 630 L 332 632 L 334 632 L 341 640 L 380 679 L 380 681 L 384 683 L 392 693 L 396 702 L 396 717 L 391 727 L 383 735 L 373 739 L 358 739 L 348 734 L 335 722 L 327 714 L 327 712 L 325 712 L 318 704 L 267 653 L 252 649 L 228 641 L 210 633 L 192 623 L 174 610 L 164 601 L 156 594 L 145 582 L 134 568 L 124 553 L 111 528 L 103 506 L 97 481 L 93 452 L 74 281 L 56 122 L 53 101 L 49 89 L 43 79 L 38 73 L 27 66 L 16 62 L 12 61 L -5 61 L -16 65 L -25 71 L -31 78 L -35 86 L -37 93 L -38 101 L -38 511 L -35 543 L -30 571 L -24 595 L -13 628 L -2 654 L 10 678 L 24 701 L 35 717 L 49 736 L 75 772 L 85 787 L 98 808 L 110 831 L 118 850 L 125 873 L 129 896 L 130 908 L 130 1053 L 545 1053 L 545 1007 L 547 979 L 551 959 L 557 941 L 567 917 L 576 890 L 581 867 L 584 844 L 584 802 L 580 774 L 576 756 L 576 742 L 580 733 L 587 725 L 595 720 L 599 719 L 613 719 L 623 723 L 628 727 L 634 736 L 639 752 L 644 780 L 646 797 L 647 812 L 647 836 L 644 868 L 638 899 L 631 923 L 622 947 L 612 971 L 609 981 L 607 999 L 607 1053 L 632 1053 L 640 1056 L 646 1060 L 653 1068 L 656 1075 L 657 1083 L 657 1271 L 656 1286 L 651 1296 L 644 1303 L 635 1308 L 40 1308 L 40 1306 L 34 1304 L 25 1296 L 20 1286 L 19 1280 L 19 1080 L 21 1072 L 26 1064 L 28 1061 L 30 1061 L 30 1059 L 40 1054 L 43 1053 L 68 1052 L 68 911 L 66 894 L 62 877 L 54 856 L 42 833 L 28 811 L 0 773 L -16 752 L -28 734 L -41 713 L -52 693 L -65 665 L -74 642 L -84 611 L -90 587 L -95 560 L -99 528 L -100 512 L -100 93 L -97 76 L -91 60 L -83 45 L -72 32 L -61 22 L -45 12 L -28 5 L -10 1 z M 80 1114 L 80 1247 L 596 1247 L 596 1123 L 595 1114 z" stroke-linecap="round"/>
</g>
		<g transform="matrix(0.25 0 0 0.25 -97.88 -178.63)">
<path style="stroke: none; stroke-width: 1; stroke-dasharray: none; stroke-linecap: butt; stroke-dashoffset: 0; stroke-linejoin: miter; stroke-miterlimit: 4; fill: rgb(0,0,0); fill-rule: nonzero; opacity: 1;" vector-effect="non-scaling-stroke" transform=" translate(-234.5, -309.5)" d="M 0 0 L 466 0 L 484 6 L 498 13 L 512 23 L 522 33 L 531 46 L 539 62 L 543 77 L 544 82 L 545 99 L 545 523 L 543 541 L 540 553 L 535 565 L 529 576 L 518 590 L 508 599 L 492 609 L 477 615 L 465 618 L 458 619 L 10 619 L -5 616 L -19 611 L -33 603 L -44 594 L -53 585 L -62 572 L -70 556 L -75 535 L -76 520 L -76 98 L -74 77 L -69 60 L -62 46 L -54 35 L -45 25 L -34 16 L -20 8 L -4 2 z M 20 60 L 9 62 L 1 66 L -4 70 L -11 80 L -14 89 L -14 530 L -10 541 L -1 551 L 11 557 L 15 558 L 315 558 L 328 545 L 328 543 L 330 543 L 337 535 L 351 521 L 358 513 L 366 505 L 366 503 L 368 503 L 375 495 L 384 486 L 391 478 L 404 465 L 404 463 L 406 463 L 413 455 L 423 445 L 423 443 L 426 442 L 433 434 L 442 425 L 449 417 L 458 408 L 465 400 L 482 383 L 483 381 L 483 88 L 478 76 L 471 68 L 460 62 L 448 60 z M 483 469 L 483 471 L 479 473 L 470 482 L 463 490 L 455 498 L 448 506 L 438 516 L 431 524 L 417 538 L 417 540 L 415 540 L 408 548 L 399 557 L 400 559 L 454 558 L 465 554 L 473 548 L 480 539 L 483 530 L 484 469 z" stroke-linecap="round"/>
</g>
		<g transform="matrix(0.25 0 0 0.25 0 19)">
<path style="stroke: none; stroke-width: 1; stroke-dasharray: none; stroke-linecap: butt; stroke-dashoffset: 0; stroke-linejoin: miter; stroke-miterlimit: 4; fill: rgb(0,0,0); fill-rule: nonzero; opacity: 1;" vector-effect="non-scaling-stroke" transform=" translate(-15, -142)" d="M 0 0 L 30 0 L 48 3 L 64 8 L 80 15 L 92 22 L 108 34 L 117 42 L 124 50 L 133 62 L 143 79 L 151 99 L 156 120 L 158 142 L 157 158 L 153 179 L 146 199 L 137 216 L 128 229 L 117 242 L 105 253 L 92 262 L 74 272 L 58 278 L 42 282 L 30 284 L -1 284 L -21 280 L -42 273 L -59 264 L -73 254 L -83 245 L -95 233 L -106 218 L -113 206 L -121 186 L -126 166 L -128 147 L -127 125 L -123 105 L -117 87 L -106 66 L -98 55 L -89 44 L -81 36 L -71 28 L -56 18 L -40 10 L -19 3 z M 3 61 L -13 65 L -29 73 L -38 80 L -41 82 L -41 84 L -43 84 L -54 98 L -61 112 L -65 124 L -66 130 L -66 154 L -62 170 L -54 186 L -43 200 L -29 211 L -13 219 L 4 223 L 26 223 L 42 219 L 58 211 L 69 203 L 79 193 L 87 181 L 93 166 L 96 152 L 96 132 L 93 118 L 88 106 L 82 95 L 71 83 L 62 75 L 50 68 L 36 63 L 26 61 z" stroke-linecap="round"/>
</g>
		<g transform="matrix(0.25 0 0 0.25 73 -91.75)">
<path style="stroke: none; stroke-width: 1; stroke-dasharray: none; stroke-linecap: butt; stroke-dashoffset: 0; stroke-linejoin: miter; stroke-miterlimit: 4; fill: rgb(0,0,0); fill-rule: nonzero; opacity: 1;" vector-effect="non-scaling-stroke" transform=" translate(-65, -90)" d="M 0 0 L 127 0 L 135 2 L 145 8 L 151 16 L 154 23 L 155 30 L 155 147 L 153 160 L 147 170 L 139 176 L 131 179 L 124 180 L 2 180 L -8 177 L -16 171 L -22 163 L -25 155 L -25 25 L -21 15 L -14 7 L -4 1 z M 36 61 L 36 118 L 37 119 L 93 119 L 93 61 z" stroke-linecap="round"/>
</g>
		<g transform="matrix(0.25 0 0 0.25 73 -153.75)">
<path style="stroke: none; stroke-width: 1; stroke-dasharray: none; stroke-linecap: butt; stroke-dashoffset: 0; stroke-linejoin: miter; stroke-miterlimit: 4; fill: rgb(0,0,0); fill-rule: nonzero; opacity: 1;" vector-effect="non-scaling-stroke" transform=" translate(-67, -90)" d="M 0 0 L 131 0 L 140 3 L 148 9 L 154 17 L 157 29 L 157 140 L 156 156 L 153 163 L 149 169 L 141 176 L 132 179 L 46 180 L 11 180 L -3 178 L -11 173 L -16 169 L -21 161 L -23 154 L -23 24 L -19 15 L -13 7 L -2 1 z M 38 61 L 38 118 L 94 119 L 95 118 L 95 61 z" stroke-linecap="round"/>
</g>
		<g transform="matrix(0.25 0 0 0.25 -97.88 -208.13)">
<path style="stroke: none; stroke-width: 1; stroke-dasharray: none; stroke-linecap: butt; stroke-dashoffset: 0; stroke-linejoin: miter; stroke-miterlimit: 4; fill: rgb(0,0,0); fill-rule: nonzero; opacity: 1;" vector-effect="non-scaling-stroke" transform=" translate(-136.5, -30.5)" d="M 0 0 L 272 0 L 282 4 L 290 11 L 295 21 L 296 24 L 296 37 L 290 49 L 282 56 L 276 59 L 260 61 L 8 61 L -3 59 L -11 55 L -19 46 L -23 36 L -23 24 L -19 14 L -12 6 z" stroke-linecap="round"/>
</g>
		<g transform="matrix(0.25 0 0 0.25 141.75 -153.88)">
<path style="stroke: none; stroke-width: 1; stroke-dasharray: none; stroke-linecap: butt; stroke-dashoffset: 0; stroke-linejoin: miter; stroke-miterlimit: 4; fill: rgb(0,0,0); fill-rule: nonzero; opacity: 1;" vector-effect="non-scaling-stroke" transform=" translate(-105, -30.5)" d="M 0 0 L 209 0 L 219 3 L 227 9 L 233 17 L 236 26 L 236 35 L 232 46 L 223 56 L 214 60 L 209 61 L 0 61 L -11 57 L -18 51 L -24 41 L -26 30 L -24 21 L -20 13 L -16 8 L -7 2 z" stroke-linecap="round"/>
</g>
		<g transform="matrix(0.25 0 0 0.25 141.75 -106.63)">
<path style="stroke: none; stroke-width: 1; stroke-dasharray: none; stroke-linecap: butt; stroke-dashoffset: 0; stroke-linejoin: miter; stroke-miterlimit: 4; fill: rgb(0,0,0); fill-rule: nonzero; opacity: 1;" vector-effect="non-scaling-stroke" transform=" translate(-104, -30.5)" d="M 0 0 L 207 0 L 216 2 L 225 8 L 231 15 L 235 26 L 235 35 L 231 46 L 223 55 L 213 60 L 206 61 L 0 61 L -10 58 L -19 51 L -25 41 L -27 29 L -24 18 L -18 9 L -7 2 z" stroke-linecap="round"/>
</g>
		<g transform="matrix(0.25 0 0 0.25 -109 -172.63)">
<path style="stroke: none; stroke-width: 1; stroke-dasharray: none; stroke-linecap: butt; stroke-dashoffset: 0; stroke-linejoin: miter; stroke-miterlimit: 4; fill: rgb(0,0,0); fill-rule: nonzero; opacity: 1;" vector-effect="non-scaling-stroke" transform=" translate(-90, -30.5)" d="M 0 0 L 179 0 L 188 3 L 197 9 L 204 20 L 205 23 L 205 38 L 200 48 L 194 55 L 183 60 L 176 61 L 2 61 L -8 58 L -14 54 L -21 46 L -25 37 L -25 25 L -21 14 L -16 8 L -6 2 z" stroke-linecap="round"/>
</g>
		<g transform="matrix(0.25 0 0 0.25 130.75 -76.88)">
<path style="stroke: none; stroke-width: 1; stroke-dasharray: none; stroke-linecap: butt; stroke-dashoffset: 0; stroke-linejoin: miter; stroke-miterlimit: 4; fill: rgb(0,0,0); fill-rule: nonzero; opacity: 1;" vector-effect="non-scaling-stroke" transform=" translate(-63, -30.5)" d="M 0 0 L 126 0 L 134 3 L 144 12 L 149 22 L 150 25 L 150 35 L 147 44 L 141 52 L 133 58 L 127 60 L 119 61 L 4 61 L -6 58 L -12 54 L -20 45 L -23 38 L -24 29 L -22 20 L -19 14 L -11 5 L -3 1 z" stroke-linecap="round"/>
</g>
		<g transform="matrix(0.25 0 0 0.25 173.5 -255.88)">
<path style="stroke: none; stroke-width: 1; stroke-dasharray: none; stroke-linecap: butt; stroke-dashoffset: 0; stroke-linejoin: miter; stroke-miterlimit: 4; fill: rgb(0,0,0); fill-rule: nonzero; opacity: 1;" vector-effect="non-scaling-stroke" transform=" translate(-1, -0.5)" d="M 0 0 L 2 1 z" stroke-linecap="round"/>
</g>
		<g transform="matrix(0.25 0 0 0.25 114.5 255.75)">
<path style="stroke: none; stroke-width: 1; stroke-dasharray: none; stroke-linecap: butt; stroke-dashoffset: 0; stroke-linejoin: miter; stroke-miterlimit: 4; fill: rgb(0,0,0); fill-rule: nonzero; opacity: 1;" vector-effect="non-scaling-stroke" transform=" translate(0, 0)" d="M 0 0" stroke-linecap="round"/>
</g>
</g>
</g>
</svg>