<svg xmlns="http://www.w3.org/2000/svg" xmlns:xlink="http://www.w3.org/1999/xlink" version="1.1" width="600" height="600" viewBox="0 0 600 600" xml:space="preserve">
<desc>Created with Fabric.js 5.2.4</desc>
<defs>
</defs>
<rect x="0" y="0" width="100%" height="100%" fill="transparent"/>
<g transform="matrix(1 0 0 1 300 300)" id="a20746f3-6eb3-47ed-8306-14097cbd9462">
<rect style="stroke: none; stroke-width: 1; stroke-dasharray: none; stroke-linecap: butt; stroke-dashoffset: 0; stroke-linejoin: miter; stroke-miterlimit: 4; fill: rgb(255,255,255); fill-rule: nonzero; opacity: 1; visibility: hidden;" vector-effect="non-scaling-stroke" x="-300" y="-300" rx="0" ry="0" width="600" height="600"/>
</g>
<g transform="matrix(Infinity NaN NaN Infinity 0 0)" id="cd5a2289-2ccb-4be4-8e2d-39aacb913331">
</g>
<g transform="matrix(0.46 0 0 0.46 286.18 281.85)">
<g style="">
		<g transform="matrix(0.25 0 0 0.25 -2.25 -62.63)">
<path style="stroke: none; stroke-width: 1; stroke-dasharray: none; stroke-linecap: butt; stroke-dashoffset: 0; stroke-linejoin: miter; stroke-miterlimit: 4; fill: rgb(0,0,0); fill-rule: nonzero; opacity: 1;" vector-effect="non-scaling-stroke" transform=" translate(-1213, -930.5)" d="M 0 0 L 2427 0 L 2450 3 L 2469 8 L 2489 16 L 2506 25 L 2523 37 L 2536 48 L 2549 61 L 2560 75 L 2569 89 L 2580 110 L 2587 131 L 2592 154 L 2593 163 L 2594 189 L 2594 1671 L 2593 1698 L 2590 1718 L 2585 1737 L 2579 1753 L 2567 1776 L 2557 1790 L 2548 1801 L 2542 1808 L 2534 1815 L 2522 1825 L 2506 1836 L 2492 1843 L 2479 1849 L 2458 1856 L 2438 1860 L 2427 1861 L 1874 1861 L 1872 1860 L 1872 1472 L 1873 1470 L 2472 1470 L 2471 179 L 2469 164 L 2464 152 L 2458 143 L 2453 137 L 2439 128 L 2429 124 L 2413 122 L 10 122 L -3 124 L -14 128 L -24 135 L -29 139 L -37 150 L -42 160 L -45 173 L -46 1410 L -46 1470 L 42 1470 L 43 1471 L 44 1668 L 44 1860 L 43 1861 L -1 1861 L -25 1858 L -45 1852 L -62 1845 L -78 1837 L -90 1829 L -103 1819 L -113 1810 L -124 1799 L -137 1782 L -146 1767 L -156 1746 L -163 1724 L -167 1702 L -168 1692 L -168 166 L -165 145 L -160 126 L -152 105 L -142 86 L -130 69 L -112 49 L -99 38 L -85 28 L -71 20 L -52 11 L -33 5 L -19 2 z" stroke-linecap="round"/>
</g>
		<g transform="matrix(0.25 0 0 0.25 -13.5 72.38)">
<path style="stroke: none; stroke-width: 1; stroke-dasharray: none; stroke-linecap: butt; stroke-dashoffset: 0; stroke-linejoin: miter; stroke-miterlimit: 4; fill: rgb(0,0,0); fill-rule: nonzero; opacity: 1;" vector-effect="non-scaling-stroke" transform=" translate(-565, -840.5)" d="M 0 0 L 1132 0 L 1147 3 L 1159 8 L 1170 14 L 1179 21 L 1190 32 L 1200 47 L 1206 61 L 1210 76 L 1211 93 L 1211 1583 L 1208 1602 L 1202 1620 L 1194 1636 L 1186 1647 L 1177 1658 L 1166 1667 L 1155 1674 L 1138 1680 L 1134 1681 L 294 1681 L 295 1677 L 303 1667 L 314 1650 L 322 1635 L 330 1614 L 335 1595 L 337 1584 L 338 1572 L 339 1449 L 340 1440 L 1080 1440 L 1088 1439 L 1089 1433 L 1088 1281 L 1088 122 L 41 121 L 41 220 L 40 330 L 38 331 L -79 331 L -81 326 L -81 82 L -78 67 L -72 52 L -66 42 L -57 30 L -55 30 L -55 28 L -53 28 L -53 26 L -39 15 L -22 6 L -6 1 z M 570 1488 L 559 1490 L 549 1495 L 537 1506 L 530 1517 L 526 1528 L 525 1533 L 525 1552 L 528 1563 L 534 1575 L 545 1587 L 553 1592 L 565 1596 L 579 1597 L 589 1595 L 599 1591 L 609 1584 L 618 1572 L 623 1560 L 625 1550 L 625 1535 L 622 1522 L 616 1510 L 607 1500 L 597 1493 L 586 1489 L 580 1488 z" stroke-linecap="round"/>
</g>
		<g transform="matrix(0.25 0 0 0.25 -182.25 121.13)">
<path style="stroke: none; stroke-width: 1; stroke-dasharray: none; stroke-linecap: butt; stroke-dashoffset: 0; stroke-linejoin: miter; stroke-miterlimit: 4; fill: rgb(0,0,0); fill-rule: nonzero; opacity: 1;" vector-effect="non-scaling-stroke" transform=" translate(-270, -645.5)" d="M 0 0 L 544 0 L 561 1 L 577 4 L 592 10 L 607 18 L 618 26 L 628 35 L 635 42 L 644 55 L 652 70 L 657 85 L 660 102 L 661 138 L 661 1146 L 660 1186 L 656 1206 L 650 1222 L 641 1238 L 634 1247 L 625 1257 L 613 1268 L 595 1279 L 578 1286 L 562 1290 L 555 1291 L -13 1291 L -30 1288 L -47 1282 L -63 1274 L -79 1262 L -94 1247 L -103 1234 L -111 1220 L -117 1203 L -120 1188 L -121 1176 L -121 110 L -118 88 L -112 70 L -105 57 L -95 43 L -81 29 L -69 20 L -55 12 L -44 7 L -32 3 L -20 1 z M 2 121 L 1 122 L 1 1020 L 539 1020 L 539 122 L 463 121 z M 262 1098 L 247 1101 L 236 1108 L 231 1112 L 223 1122 L 218 1132 L 215 1143 L 215 1163 L 219 1176 L 227 1189 L 234 1196 L 244 1202 L 255 1206 L 269 1207 L 282 1204 L 295 1197 L 303 1189 L 310 1178 L 314 1168 L 315 1163 L 315 1143 L 311 1130 L 305 1119 L 298 1111 L 288 1104 L 276 1099 z" stroke-linecap="round"/>
</g>
		<g transform="matrix(0.25 0 0 0.25 196.38 249.88)">
<path style="stroke: none; stroke-width: 1; stroke-dasharray: none; stroke-linecap: butt; stroke-dashoffset: 0; stroke-linejoin: miter; stroke-miterlimit: 4; fill: rgb(0,0,0); fill-rule: nonzero; opacity: 1;" vector-effect="non-scaling-stroke" transform=" translate(-115.5, -100.5)" d="M 0 0 L 9 0 L 17 5 L 24 12 L 32 26 L 41 46 L 48 63 L 55 74 L 64 84 L 75 94 L 94 106 L 119 118 L 137 125 L 169 135 L 216 148 L 235 155 L 246 161 L 251 167 L 252 170 L 252 198 L 250 201 L -19 201 L -21 195 L -21 150 L -20 20 L -14 11 L -7 4 z" stroke-linecap="round"/>
</g>
</g>
</g>
</svg>